<?xml version="1.0" encoding="UTF-8" standalone="no"?>
<svg
   xmlns="http://www.w3.org/2000/svg"
   width="16"
   height="16"
   viewBox="0 0 4.2333332 4.2333335">
  <path
     style="fill:none;stroke:currentColor;stroke-width:0.27520061"
     d="m 0.26459348,0.26458668 c 1.23471552,0 2.46943092,0 3.70414642,0 0,1.23472002 0,2.46944002 0,3.70416002 -1.2347155,0 -2.4694309,0 -3.70414642,0 0,-1.23472 0,-2.46944 0,-3.70416002 z" />
  <path
     id="path4"
     d="m 3.5018413,1.2810479 c -0.064423,0.55776 -0.1288465,1.11552 -0.1932698,1.67328 -0.181212,0 -0.362424,0 -0.543636,0 -0.055842,-0.29018 -0.097139,-0.58297 -0.1312582,-0.87643 -0.037303,0.29255 -0.079645,0.58442 -0.1209228,0.87643 -0.1801785,0 -0.360357,0 -0.5405355,0 -0.064768,-0.55776 -0.1295356,-1.11552 -0.1943034,-1.67328 0.1409044,0 0.2818088,0 0.4227132,0 0.028641,0.38251 0.058516,0.76492 0.089917,1.14721 0.022041,-0.38404 0.069053,-0.76608 0.1198893,-1.14721 0.1508952,0 0.3017904,0 0.4526856,0 0.038623,0.39526 0.064722,0.79158 0.095084,1.18752 0.023686,-0.39729 0.063456,-0.79367 0.1209228,-1.18752 0.1409046,0 0.2818092,0 0.4227138,0 z m -1.810742,0.50643 c -0.1347032,0 -0.2694065,0 -0.4041097,0 0.00925,-0.0857 0.015783,-0.32587 -0.127124,-0.22641 -0.068448,0.11971 0.00884,0.25746 0.116294,0.32112 0.1463773,0.10508 0.3423176,0.17488 0.4076521,0.35932 0.053178,0.13141 0.050061,0.27734 0.041691,0.41596 -0.022248,0.16038 -0.1551571,0.29867 -0.3185089,0.31453 -0.208496,0.0429 -0.47239689,0.0172 -0.59970699,-0.1756 -0.0715389,-0.13119 -0.0658347,-0.30723 -0.0542836,-0.44153 0.13252027,0 0.26504049,0 0.39756079,0 0.023823,0.10405 -0.060301,0.31215 0.075477,0.33518 0.1301263,-0.0227 0.098909,-0.20234 0.056092,-0.28897 -0.049908,-0.12225 -0.19203,-0.14052 -0.28326348,-0.22173 -0.13351195,-0.0831 -0.26225519,-0.21049 -0.26152821,-0.37895 -0.0176736,-0.17185 -0.004,-0.39199 0.16522332,-0.48637 0.22931067,-0.10572 0.53879237,-0.10427 0.72503597,0.0852 0.07623,0.11422 0.060071,0.2582 0.063499,0.38825 z" />
</svg>
